/vscmnt/brussel_pixiu_data/_data_brussel/112/vsc11236/PredSimResults/SUBJ06opt3D/expIG/worker_12.mot
version=1
nRows=7
nColumns=50
inDegrees=yes
endheader
                time	         pelvis_tilt	         pelvis_list	     pelvis_rotation	           pelvis_tx	           pelvis_ty	           pelvis_tz	       hip_flexion_r	     hip_adduction_r	      hip_rotation_r	        knee_angle_r	       ankle_angle_r	         mtp_angle_r	       hip_flexion_l	     hip_adduction_l	      hip_rotation_l	        knee_angle_l	       ankle_angle_l	         mtp_angle_l	    lumbar_extension	      lumbar_bending	     lumbar_rotation	 ercspn_r/activation	 intobl_r/activation	 extobl_r/activation	    abd_r/activation	    add_r/activation	hamstrings_r/activation	bifemsh_r/activation	glut_max_r/activation	iliopsoas_r/activation	rect_fem_r/activation	  vasti_r/activation	gastroc_r/activation	 soleus_r/activation	tib_ant_r/activation	 ercspn_l/activation	 intobl_l/activation	 extobl_l/activation	    abd_l/activation	    add_l/activation	hamstrings_l/activation	bifemsh_l/activation	glut_max_l/activation	iliopsoas_l/activation	rect_fem_l/activation	  vasti_l/activation	gastroc_l/activation	 soleus_l/activation	tib_ant_l/activation	
          0.97733615	         -7.77299001	         -2.86259843	          9.32139451	          1.66147145	          0.91523743	         -0.00909218	         35.91150634	         -1.67832336	         -9.76336418	         -8.31618016	          2.84932825	          0.32657229	        -13.30710301	         -4.03801131	         -1.72118437	        -11.52536440	          1.63238189	         43.34840569	        -11.28060984	          2.96236112	         -8.93255478	          0.20672710	          0.13766982	          0.00999999	          0.00999999	          0.45914111	          0.19648780	          0.22728681	          0.11450974	          0.17978562	          0.00999999	          0.00999999	          0.01759886	          0.00999999	          0.79563569	          0.21523980	          0.00999999	          0.00999999	          0.02265172	          0.28182376	          0.04144898	          0.40028673	          0.01828745	          0.45893417	          0.09384549	          0.02508212	          0.39984821	          0.25596406	          0.01352303	
          0.98710951	         -7.71145357	         -2.85141936	          9.36148916	          1.68207939	          0.91275447	         -0.00843068	         36.19365890	         -1.58030369	         -9.52998612	        -11.04484713	          2.24549595	          0.26198068	        -14.39380841	         -4.26296910	         -2.12187404	        -11.70825101	         -0.14968577	         44.96364091	        -10.89326805	          3.16379274	         -9.41202721	          0.17777022	          0.11838600	          0.00999999	          0.05344704	          0.48414090	          0.17815054	          0.19545007	          0.30010313	          0.15460251	          0.00999999	          0.00999999	          0.01513374	          0.01162888	          0.87625964	          0.21802863	          0.00999999	          0.00999999	          0.01947883	          0.39344660	          0.05901039	          0.42956065	          0.01572587	          0.64774457	          0.08070027	          0.02156879	          0.34384029	          0.22011041	          0.01162882	
          0.99688287	         -7.63819473	         -2.85307955	          9.35603434	          1.70265465	          0.91040280	         -0.00768978	         36.38741359	         -1.49422250	         -9.27700634	        -13.77835058	          1.99221782	          0.21968380	        -15.09064278	         -4.50464250	         -2.54550662	        -12.62695353	         -1.82207711	         46.32810055	        -10.52930545	          3.37860906	         -9.82898836	          0.17671263	          0.10180332	          0.00999999	          0.16222513	          0.53321854	          0.15319646	          0.16807280	          0.39212226	          0.13294688	          0.00999999	          0.00999999	          0.01301391	          0.00999999	          0.92507657	          0.23354395	          0.00999999	          0.00999999	          0.01675037	          0.33833537	          0.05074463	          0.38666484	          0.01352310	          0.78671319	          0.06939634	          0.01854759	          0.29567756	          0.18927890	          0.00999999	
          1.00665623	         -7.55360144	         -2.84807611	          9.30289234	          1.72295343	          0.90835667	         -0.00682321	         36.57713369	         -1.39624216	         -9.07898167	        -16.46364800	          1.60559420	          0.17685212	        -15.31554317	         -4.75308807	         -2.97965614	        -14.39360825	         -3.37503400	         47.29784181	        -10.22321405	          3.58170166	        -10.18072389	          0.21513069	          0.08754343	          0.00999999	          0.23994010	          0.59243394	          0.13173778	          0.14453034	          0.54406116	          0.11432462	          0.00999999	          0.00999999	          0.01119101	          0.00999999	          0.95463468	          0.28518639	          0.00999999	          0.00999999	          0.01440410	          0.29094373	          0.04363668	          0.33250355	          0.01162888	          0.81219368	          0.05967579	          0.01594957	          0.25426113	          0.16276604	          0.00999999	
          1.01642959	         -7.45736630	         -2.84393014	          9.20754242	          1.74285617	          0.90675057	         -0.00585334	         36.83542436	         -1.28451529	         -8.88512486	        -19.31255128	          1.63083929	          0.09985082	        -15.04148083	         -5.02800284	         -3.41291766	        -17.04230872	         -4.76538804	         47.57840266	         -9.98203020	          3.78401425	        -10.46350207	          0.22320786	          0.07528096	          0.00999999	          0.28693884	          0.58366021	          0.11328488	          0.12428555	          0.55001472	          0.09831083	          0.00999999	          0.11648238	          0.00999999	          0.00999999	          0.95513151	          0.34267962	          0.00999999	          0.00999999	          0.01238647	          0.28680134	          0.03752436	          0.28592879	          0.00999999	          0.69842730	          0.05131683	          0.01371547	          0.21864602	          0.13996692	          0.00999999	
          1.02620295	         -7.35354331	         -2.84867769	          9.06981820	          1.76234758	          0.90572358	         -0.00479581	         37.06808727	         -1.12853406	         -8.66222116	        -22.16319203	          2.20094391	          0.04622186	        -14.29390097	         -5.34365494	         -3.84002583	        -20.45582877	         -6.20995580	         47.19689389	         -9.79642986	          3.99182137	        -10.67268895	          0.19684579	          0.06473613	          0.00999999	          0.32712851	          0.57648610	          0.09741673	          0.10687651	          0.47297253	          0.08454014	          0.00999999	          0.23702876	          0.00999999	          0.00999999	          0.82134341	          0.38325260	          0.00999999	          0.00999999	          0.01065146	          0.27470838	          0.03226821	          0.24587790	          0.00999999	          0.60059652	          0.04412873	          0.01179430	          0.18801962	          0.12036134	          0.00999999	
          1.03597631	         -7.25035460	         -2.84804001	          8.88912997	          1.78141877	          0.90539253	         -0.00366589	         37.12259783	         -0.91937775	         -8.40450152	        -24.73381127	          3.32668159	          0.09527349	        -13.11729314	         -5.68733073	         -4.25843756	        -24.45959622	         -7.92970472	         46.14368782	         -9.65931986	          4.18411753	        -10.81257005	          0.16927302	          0.05566835	          0.00999999	          0.36703890	          0.52674725	          0.08967350	          0.09190600	          0.40672186	          0.07269835	          0.00999999	          0.39144681	          0.00999999	          0.00999999	          0.70629541	          0.39362972	          0.00999999	          0.00999999	          0.00999999	          0.32065227	          0.02774831	          0.21143705	          0.00999999	          0.51646919	          0.03794749	          0.01014224	          0.16168316	          0.10350197	          0.00999999	
